{"title":"Dawn Rider 2012 DVDrip English Good AR Klam","uid":8110879,"size":1438650627,"categoryP":"video","categoryS":"movies","magnet":"?xt=urn:btih:18f64072473753ee7e3939ca40ab4a1b4dc8e008&amp;dn=Dawn+Rider+2012+DVDrip+English+Good+AR+Klam&amp;tr=udp%3A%2F%2Ftracker.openbittorrent.com%3A80&amp;tr=udp%3A%2F%2Fopen.demonii.com%3A1337&amp;tr=udp%3A%2F%2Ftracker.coppersurfer.tk%3A6969&amp;tr=udp%3A%2F%2Fexodus.desync.com%3A6969","seeders":2,"leechers":0,"uploader":"Klambake","files":-1,"time":1360181616,"description":"With: Donald Sutherland, Christian Slater and Jill Hennessy\n\nKort nadat John Mason weer in contact is gekomen met zijn vervreemde vader wordt hij tijdens een trein overval neergeschoten en zijn vader gedood. Wanneer hij op een nabijgelegen ranch herstelt van zijn verwondingen wordt hij verliefd op de lokale bewoonster Alice. Wat hij echter niet weet is dat de man die verantwoordelijk is voor de dood van zijn vader vlakbij is...\n\nAfter his father is killed, John Mason is willing to turn the world inside out to find the man responsible. What he doesn't know is the killer might be in his own house. \n &lt;a href=&quot;\nhttp://www.imdb.com/title/tt2014202&quot; rel=&quot;nofollow&quot; target=&quot;_NEW&quot;&gt;\nhttp://www.imdb.com/title/tt2014202&lt;/a&gt;\t\n\n------------------------ Dutch Friends ------------------------\n---------------------------------------------------------------\n- Bezoek ook eens mijn vrienden op: &lt;a href=&quot; http://www.Film-Test.nl&quot; rel=&quot;nofollow&quot; target=&quot;_NEW&quot;&gt; http://www.Film-Test.nl&lt;/a&gt; --\n----- voor mijn Nederlandse Sync. ondertitels ---- en meer ----\n------- http://www.Film-Test.nl ---- Over Films en meer -------\n---------------------------------------------------------------\n\nGeneral:\n\nComplete name                    : Dawn RiderDawn Rider.avi\nFormat                           : AVI\nFormat/Info                      : Audio Video Interleave\nFile size                        : 1.34 GiB\nDuration                         : 1h 33mn\nOverall bit rate                 : 2 043 Kbps\n\nVideo:\n\nFormat                           : MPEG-4 Visual\nFormat profile                   : Simple@L3\nFormat settings, BVOP            : No\nFormat settings, QPel            : No\nFormat settings, GMC             : No warppoints\nFormat settings, Matrix          : Default (H.263)\nCodec ID                         : XVID\nCodec ID/Hint                    : XviD\nDuration                         : 1h 33mn\nBit rate                         : 1 584 Kbps\nWidth                            : 704 pixels\nHeight                           : 396 pixels\nDisplay aspect ratio             : 16:9\nFrame rate                       : 25.000 fps\nColor space                      : YUV\nChroma subsampling               : 4:2:0\nBit depth                        : 8 bits\nScan type                        : Progressive\nCompression mode                 : Lossy\nBits/(Pixel*Frame)               : 0.227\nStream size                      : 1.04 GiB (78%)\nWriting library                  : XviD 1.1.2 (UTC 2006-11-01)\n\nAudio:\n\nFormat                           : AC-3\nFormat/Info                      : Audio Coding 3\nMode extension                   : CM (complete main)\nCodec ID                         : 2000\nDuration                         : 1h 33mn\nBit rate mode                    : Constant\nBit rate                         : 448 Kbps\nChannel(s)                       : 6 channels\nChannel positions                : Front: L C R, Side: L R, LFE\nSampling rate                    : 48.0 KHz\nBit depth                        : 16 bits\nCompression mode                 : Lossy\nStream size                      : 300 MiB (22%)\nAlignment                        : Aligned on interleaves\nInterleave, duration             : 32 ms (0.80 video frame)\nInterleave, preload duration     : 96 ms","torrent":{"xt":"urn:btih:18f64072473753ee7e3939ca40ab4a1b4dc8e008","amp;dn":"Dawn+Rider+2012+DVDrip+English+Good+AR+Klam","amp;tr":["udp%3A%2F%2Ftracker.openbittorrent.com%3A80","udp%3A%2F%2Fopen.demonii.com%3A1337","udp%3A%2F%2Ftracker.coppersurfer.tk%3A6969","udp%3A%2F%2Fexodus.desync.com%3A6969"],"infoHash":"18f64072473753ee7e3939ca40ab4a1b4dc8e008","infoHashBuffer":{"type":"Buffer","data":[24,246,64,114,71,55,83,238,126,57,57,202,64,171,74,27,77,200,224,8]},"announce":[],"urlList":[]}}